<svg width="30" height="30" viewBox="0 0 30 30" fill="none" xmlns="http://www.w3.org/2000/svg">
<rect width="30" height="30" rx="15" fill="white"/>
<g clip-path="url(#clip0_44002_2092)">
<path d="M21.8906 6H8.10938C6.94627 6 6 6.94627 6 8.10938V21.8906C6 23.0537 6.94627 24 8.10938 24H21.8906C23.0537 24 24 23.0537 24 21.8906V8.10938C24 6.94627 23.0537 6 21.8906 6ZM22.5938 21.8906C22.5938 22.2783 22.2783 22.5938 21.8906 22.5938H17.8828V16.8633H20.0551L20.4141 14.6836H17.8828V13.1719C17.8828 12.5751 18.3407 12.1172 18.9375 12.1172H20.3789V9.9375H18.9375C17.1472 9.9375 15.7039 11.3877 15.7039 13.178V14.6836H13.5938V16.8633H15.7039V22.5938H8.10938C7.72167 22.5938 7.40625 22.2783 7.40625 21.8906V8.10938C7.40625 7.72167 7.72167 7.40625 8.10938 7.40625H21.8906C22.2783 7.40625 22.5938 7.72167 22.5938 8.10938V21.8906Z" fill="#111111"/>
</g>
<defs>
<clipPath id="clip0_44002_2092">
<rect width="18" height="18" fill="white" transform="translate(6 6)"/>
</clipPath>
</defs>
</svg>
