<svg width="30" height="30" viewBox="0 0 30 30" fill="none" xmlns="http://www.w3.org/2000/svg">
<rect width="30" height="30" rx="15" fill="white"/>
<g clip-path="url(#clip0_44002_2097)">
<path d="M19.5 6H10.5C7.98 6 6 7.98 6 10.5V19.5C6 22.02 7.98 24 10.5 24H19.5C22.02 24 24 22.02 24 19.5V10.5C24 7.98 22.02 6 19.5 6ZM22.2 19.5C22.2 21.03 21.03 22.2 19.5 22.2H10.5C8.97 22.2 7.8 21.03 7.8 19.5V10.5C7.8 8.97 8.97 7.8 10.5 7.8H19.5C21.03 7.8 22.2 8.97 22.2 10.5V19.5Z" fill="#111111"/>
<path d="M15 10.5C12.48 10.5 10.5 12.48 10.5 15C10.5 17.52 12.48 19.5 15 19.5C17.52 19.5 19.5 17.52 19.5 15C19.5 12.48 17.52 10.5 15 10.5ZM15 17.7C13.47 17.7 12.3 16.53 12.3 15C12.3 13.47 13.47 12.3 15 12.3C16.53 12.3 17.7 13.47 17.7 15C17.7 16.53 16.53 17.7 15 17.7Z" fill="#111111"/>
<path d="M19.5 11.4001C19.997 11.4001 20.4 10.9972 20.4 10.5001C20.4 10.003 19.997 9.6001 19.5 9.6001C19.0029 9.6001 18.6 10.003 18.6 10.5001C18.6 10.9972 19.0029 11.4001 19.5 11.4001Z" fill="#111111"/>
</g>
<defs>
<clipPath id="clip0_44002_2097">
<rect width="18" height="18" fill="white" transform="translate(6 6)"/>
</clipPath>
</defs>
</svg>
